<svg xmlns="http://www.w3.org/2000/svg" width="16" height="16" viewBox="0 0 16 16">
  <defs>
    <mask id="badgeGap">
      <rect width="16" height="16" fill="white"/>
      <circle cx="12.1" cy="12.1" r="4.4" fill="black"/>
    </mask>
  </defs>
  <!-- bell shifted up-left to make room for the badge -->
  <g mask="url(#badgeGap)" transform="translate(-1.2 -0.9)">
    <g fill="none" stroke="#222222" stroke-width="1.3" stroke-linecap="round" stroke-linejoin="round">
      <path d="M4.2 1.9 6.4 3.2"/>
      <path d="M11.8 1.9 9.6 3.2"/>
      <path d="M8 4.4 C5.9 4.4 4.9 6.1 4.9 8.6 L4.9 9.8 C4.9 10.5 4.4 11 3.7 11.4 L12.3 11.4 C11.6 11 11.1 10.5 11.1 9.8 L11.1 8.6 C11.1 6.1 10.1 4.4 8 4.4 Z"/>
    </g>
    <circle cx="8" cy="13.4" r="1.15" fill="#222222"/>
  </g>
  <!-- clock badge -->
  <g fill="none" stroke="#222222" stroke-linecap="round">
    <circle cx="12.1" cy="12.1" r="2.9" stroke-width="1.2"/>
    <path d="M12.1 10.7 12.1 12.1 13.2 12.7" stroke-width="1"/>
  </g>
</svg>
