<svg xmlns="http://www.w3.org/2000/svg" width="16" height="16" viewBox="0 0 16 16">
  <g fill="#222222">
    <!-- angry brows -->
    <rect x="3.9" y="1.7" width="3.1" height="1.35" rx="0.67" transform="rotate(28 5.45 2.37)"/>
    <rect x="9.0" y="1.7" width="3.1" height="1.35" rx="0.67" transform="rotate(-28 10.55 2.37)"/>
    <!-- bell silhouette -->
    <path d="M8 3.6 C5.7 3.6 4.7 5.4 4.7 8.4 L4.7 9.4 C4.7 10.2 4.2 10.8 3.4 11.3 L3.4 11.9 L12.6 11.9 L12.6 11.3 C11.8 10.8 11.3 10.2 11.3 9.4 L11.3 8.4 C11.3 5.4 10.3 3.6 8 3.6 Z"/>
    <!-- clapper -->
    <circle cx="8" cy="13.2" r="1.2"/>
    <!-- ringing wave bands -->
    <path d="M2.7 5.9 C1.8 7.3 1.8 9.1 2.7 10.5 L1.8 11.0 C0.7 9.3 0.7 7.1 1.8 5.4 Z"/>
    <path d="M13.3 5.9 C14.2 7.3 14.2 9.1 13.3 10.5 L14.2 11.0 C15.3 9.3 15.3 7.1 14.2 5.4 Z"/>
  </g>
</svg>
