<svg xmlns="http://www.w3.org/2000/svg" width="16" height="16" viewBox="0 0 16 16">
  <g fill="none" stroke="#222222" stroke-width="1.3" stroke-linecap="round" stroke-linejoin="round">
    <!-- angry brows -->
    <path d="M4.2 1.9 6.4 3.2"/>
    <path d="M11.8 1.9 9.6 3.2"/>
    <!-- bell body -->
    <path d="M8 4.4 C5.9 4.4 4.9 6.1 4.9 8.6 L4.9 9.8 C4.9 10.5 4.4 11 3.7 11.4 L12.3 11.4 C11.6 11 11.1 10.5 11.1 9.8 L11.1 8.6 C11.1 6.1 10.1 4.4 8 4.4 Z"/>
    <!-- ringing waves -->
    <path d="M2.3 6.2 C1.6 7.4 1.6 9.2 2.3 10.4" stroke-width="1.1"/>
    <path d="M13.7 6.2 C14.4 7.4 14.4 9.2 13.7 10.4" stroke-width="1.1"/>
  </g>
  <circle cx="8" cy="13.4" r="1.15" fill="#222222"/>
</svg>
