<svg xmlns="http://www.w3.org/2000/svg" width="16" height="16" viewBox="0 0 16 16">
  <defs>
    <clipPath id="badgeGap">
      <path clip-rule="evenodd" fill-rule="evenodd"
            d="M0 0 H16 V16 H0 Z M12.1 7.7 A4.4 4.4 0 1 0 12.1 16.5 A4.4 4.4 0 1 0 12.1 7.7 Z"/>
    </clipPath>
  </defs>
  <g fill="#222222">
    <!-- bell shifted up-left, with a hole for the badge -->
    <g clip-path="url(#badgeGap)">
      <g transform="translate(-1.2 -0.9)">
        <rect x="3.9" y="1.7" width="3.1" height="1.35" rx="0.67" transform="rotate(28 5.45 2.37)"/>
        <rect x="9.0" y="1.7" width="3.1" height="1.35" rx="0.67" transform="rotate(-28 10.55 2.37)"/>
        <path d="M8 3.6 C5.7 3.6 4.7 5.4 4.7 8.4 L4.7 9.4 C4.7 10.2 4.2 10.8 3.4 11.3 L3.4 11.9 L12.6 11.9 L12.6 11.3 C11.8 10.8 11.3 10.2 11.3 9.4 L11.3 8.4 C11.3 5.4 10.3 3.6 8 3.6 Z"/>
        <circle cx="8" cy="13.2" r="1.2"/>
      </g>
    </g>
    <!-- clock badge: ring + hands -->
    <path fill-rule="evenodd"
          d="M12.1 9.2 A2.9 2.9 0 1 0 12.1 15.0 A2.9 2.9 0 1 0 12.1 9.2 Z M12.1 10.35 A1.75 1.75 0 1 1 12.1 13.85 A1.75 1.75 0 1 1 12.1 10.35 Z"/>
    <rect x="11.67" y="10.6" width="0.88" height="1.95" rx="0.44"/>
    <rect x="11.9" y="11.7" width="1.65" height="0.85" rx="0.42"/>
  </g>
</svg>
